<?xml version="1.0" standalone="no"?><!DOCTYPE svg PUBLIC "-//W3C//DTD SVG 1.1//EN" "http://www.w3.org/Graphics/SVG/1.1/DTD/svg11.dtd"><svg t="1629365500179" class="icon" viewBox="0 0 1027 1024" version="1.1" xmlns="http://www.w3.org/2000/svg" p-id="2074" xmlns:xlink="http://www.w3.org/1999/xlink" width="200.5859375" height="200"><defs><style type="text/css"></style></defs><path d="M513.84768 1024l188.16-590.72H325.04768z" fill="#E24329" p-id="2075"></path><path d="M513.84768 1024L325.04768 433.28H60.72768L513.84768 1024z" fill="#FC6D26" p-id="2076"></path><path d="M60.72768 433.28L1.84768 613.12a40.32 40.32 0 0 0 14.08 44.16L513.84768 1024z" fill="#FCA326" p-id="2077"></path><path d="M60.72768 433.28h264.32L211.76768 77.44a19.84 19.84 0 0 0-37.76 0z" fill="#E24329" p-id="2078"></path><path d="M513.84768 1024l188.16-590.72h264.32L513.84768 1024z" fill="#FC6D26" p-id="2079"></path><path d="M966.96768 433.28L1025.84768 613.12a40.32 40.32 0 0 1-14.08 44.16L513.84768 1024z" fill="#FCA326" p-id="2080"></path><path d="M966.96768 433.28H705.84768l113.28-355.84a19.84 19.84 0 0 1 37.76 0l113.28 355.84z" fill="#E24329" p-id="2081"></path></svg>