<?xml version="1.0" standalone="no"?><!DOCTYPE svg PUBLIC "-//W3C//DTD SVG 1.1//EN" "http://www.w3.org/Graphics/SVG/1.1/DTD/svg11.dtd"><svg t="1628847618981" class="icon" viewBox="0 0 1024 1024" version="1.1" xmlns="http://www.w3.org/2000/svg" p-id="2114" xmlns:xlink="http://www.w3.org/1999/xlink" width="200" height="200"><defs><style type="text/css"></style></defs><path d="M1024 0l-244.622222 273.066667s-5.688889 5.688889 0 5.688889c5.688889 17.066667 0 34.133333-11.377778 45.511111-17.066667 11.377778-28.444444 17.066667-39.822222 17.066666-11.377778 0-22.755556-5.688889-34.133334-17.066666L494.933333 529.066667l22.755556 267.377777 221.866667 227.555556 284.444444-1024z" fill="#3388FF" p-id="2115"></path><path d="M1024 0l-244.622222 273.066667s-5.688889 5.688889 0 5.688889c5.688889 17.066667 0 34.133333-11.377778 45.511111-11.377778 11.377778-28.444444 17.066667-39.822222 17.066666-11.377778 0-22.755556-5.688889-34.133334-17.066666L500.622222 523.377778v5.688889l17.066667 261.688889L1012.622222 22.755556 1024 0z" fill="#005DE0" p-id="2116"></path><path d="M1024 0l-273.066667 244.622222s-5.688889 5.688889-5.688889 0c-17.066667-5.688889-34.133333 0-45.511111 11.377778-11.377778 17.066667-17.066667 28.444444-17.066666 39.822222 0 11.377778 5.688889 22.755556 17.066666 34.133334L494.933333 529.066667 227.555556 506.311111 0 284.444444l1024-284.444444z" fill="#00EED4" p-id="2117"></path><path d="M1024 0l-273.066667 244.622222s-5.688889 5.688889-5.688889 0c-17.066667-5.688889-34.133333 0-45.511111 11.377778-11.377778 11.377778-17.066667 22.755556-11.377777 34.133333 0 11.377778 5.688889 22.755556 17.066666 34.133334L500.622222 523.377778h-5.688889l-261.688889-17.066667L1001.244444 11.377778 1024 0z" fill="#00D3B4" p-id="2118"></path></svg>