<?xml version="1.0" standalone="no"?>
<!DOCTYPE svg PUBLIC "-//W3C//DTD SVG 1.1//EN" "http://www.w3.org/Graphics/SVG/1.1/DTD/svg11.dtd"><svg t="1627820918723"
    class="icon" viewBox="0 0 1228 1024" version="1.1" xmlns="http://www.w3.org/2000/svg" p-id="2189"
    xmlns:xlink="http://www.w3.org/1999/xlink" width="30.84375" height="25">
    <defs>
        <style type="text/css"></style>
    </defs>
    <path
        d="M810.76527408 795.4432a16.384 16.384 0 0 0 2.048 24.9856 210.1248 210.1248 0 0 1 64.7168 126.1568 68.4032 68.4032 0 1 0 73.1136-86.016 209.92 209.92 0 0 1-116.736-65.1264 16.384 16.384 0 0 0-23.1424 0z"
        fill="#FB6500" p-id="2190"></path>
    <path
        d="M1088.47407408 687.104a68.1984 68.1984 0 0 0-19.6608 41.1648 209.92 209.92 0 0 1-64.9216 116.9408 16.384 16.384 0 1 0 24.9856 20.8896 209.92 209.92 0 0 1 126.1568-64.7168 68.4032 68.4032 0 1 0-66.3552-114.2784z"
        fill="#0082EF" p-id="2191"></path>
    <path
        d="M895.75727408 494.1824a68.4032 68.4032 0 0 0 41.1648 116.3264 209.92 209.92 0 0 1 116.9408 64.9216 16.384 16.384 0 1 0 20.8896-24.9856 210.1248 210.1248 0 0 1-64.7168-126.1568 68.4032 68.4032 0 0 0-114.2784-30.1056z"
        fill="#2DBC00" p-id="2192"></path>
    <path
        d="M862.17007408 601.088l-1.2288 1.2288a209.7152 209.7152 0 0 1-128 66.9696 67.9936 67.9936 0 0 0-30.3104 114.2784 68.4032 68.4032 0 0 0 116.3264-41.1648 210.1248 210.1248 0 0 1 65.1264-116.9408 16.384 16.384 0 0 0-21.9136-24.3712z"
        fill="#FFCC00" p-id="2193"></path>
    <path
        d="M448.88367408 10.6496C326.20847408 24.1664 215.00207408 76.5952 135.13007408 158.5152 103.38607408 190.8736 77.58127408 227.328 58.53487408 266.24a375.1936 375.1936 0 0 0 26.4192 378.88c21.7088 32.768 57.344 73.728 89.9072 102.8096l-14.7456 115.9168-1.6384 4.9152c-0.4096 1.4336-0.4096 3.072-0.6144 4.5056l-0.4096 3.6864 0.4096 3.6864a37.2736 37.2736 0 0 0 56.1152 28.8768h0.6144l2.2528-1.6384 35.2256-17.6128 105.0624-52.8384a542.3104 542.3104 0 0 0 153.6 21.0944 550.912 550.912 0 0 0 188.416-32.768 68.1984 68.1984 0 0 1-46.4896-71.4752 462.6432 462.6432 0 0 1-193.7408 19.2512L448.47407408 772.096a468.3776 468.3776 0 0 1-69.632-14.5408 47.5136 47.5136 0 0 0-37.2736 3.8912l-2.8672 1.4336-86.4256 50.7904-3.6864 2.2528c-2.048 1.2288-3.072 1.6384-4.096 1.6384a5.9392 5.9392 0 0 1-5.5296-6.144l3.2768-13.312 3.8912-14.5408 6.144-23.9616 7.168-26.624a36.2496 36.2496 0 0 0-13.1072-40.3456 377.856 377.856 0 0 1-87.2448-90.9312A295.5264 295.5264 0 0 1 137.79247408 303.104c15.5648-31.1296 36.0448-60.0064 61.44-86.016 65.536-67.584 157.696-110.592 259.6864-121.6512a483.7376 483.7376 0 0 1 106.0864 0c101.376 11.6736 193.1264 55.296 258.2528 122.4704 25.1904 26.0096 45.6704 55.296 60.8256 86.4256 20.2752 41.3696 30.5152 85.1968 30.5152 130.048 0 4.7104-0.4096 9.4208-0.6144 13.9264a68.1984 68.1984 0 0 1 83.968 9.8304l3.072 3.6864a373.1456 373.1456 0 0 0-37.2736-194.1504 418.2016 418.2016 0 0 0-75.776-107.7248A514.048 514.048 0 0 0 575.45007408 11.0592a576.1024 576.1024 0 0 0-126.5664-0.4096z"
        fill="#0082EF" p-id="2194"></path>
</svg>