<?xml version="1.0" encoding="utf-8"?>
<!-- Generator: Adobe Illustrator 24.2.0, SVG Export Plug-In . SVG Version: 6.00 Build 0)  -->
<svg version="1.1" id="图层_1" xmlns="http://www.w3.org/2000/svg" xmlns:xlink="http://www.w3.org/1999/xlink" x="0px" y="0px"
	 viewBox="0 0 64 64" style="enable-background:new 0 0 64 64;" xml:space="preserve">
<style type="text/css">
	.st0{fill:#0168FF;}
	.st1{fill:#FF2448;}
	.st2{fill:#43FFBB;}
	.st3{fill:#FF488A;}
</style>
<path class="st0" d="M26.4,10.4c2.8,0.4,5.4,1.2,7.8,2.7c4,2.3,7.2,6.1,9,10.4c1.3,3.3,1.8,6.9,1.3,10.6c-0.4,2.7-1.2,5.4-2.7,7.7
	c3-1.7,5.7-4.3,7.4-7.3c1.3-2.2,2.2-4.6,2.4-7.2c0.4-3.3,0-6.7-1.2-9.9C48,11.2,42.5,6.8,36,5.5c-0.9-0.1-1.7-0.2-2.4-0.4
	c-8.9-0.7-17.8,3-23.4,9.9c1.7-1.3,3.7-2.6,5.6-3.3C19.3,10.4,22.9,9.9,26.4,10.4z"/>
<path class="st1" d="M9.6,37.3c0.4-2.8,1.2-5.4,2.7-7.8c2.3-4,6-7.2,10.2-9c3.4-1.3,7.1-1.8,10.7-1.3c2.7,0.4,5.2,1.2,7.6,2.6
	c-1.7-3-4.3-5.6-7.2-7.4c-2.2-1.3-4.6-2.2-7.2-2.4c-3.3-0.4-6.6,0-9.7,1.2c-5.4,2.2-9.5,6.5-11.3,11.9c-0.4,1.2-0.6,2.6-0.7,3.8
	c-0.1,1.2-0.2,2.6-0.2,3.9c0.1,8,3.8,15.6,10,20.7c-1.3-1.7-2.4-3.5-3.3-5.5C9.6,44.5,9.1,40.8,9.6,37.3z"/>
<path class="st2" d="M58.6,34.9c0.9-9.1-2.9-18-10-23.7c1.5,1.7,2.6,3.5,3.4,5.6c1.3,3.3,1.8,7.1,1.3,10.6c-0.4,2.8-1.2,5.4-2.7,7.8
	c-2.3,4.1-6.1,7.3-10.6,9c-3.3,1.3-6.9,1.7-10.4,1.2c-2.7-0.4-5.4-1.2-7.7-2.6c1.7,3,4.3,5.6,7.2,7.3c2.2,1.3,4.6,2.2,7.2,2.4
	c3.4,0.4,6.8,0,10-1.3c6.2-2.6,10.7-8,11.8-14.5c0.1-0.4,0.1-0.7,0.1-1C58.5,35.5,58.5,35.2,58.6,34.9L58.6,34.9z"/>
<path class="st3" d="M36.3,54.1c-2.8-0.4-5.4-1.2-7.8-2.7c-4-2.3-7.2-6.1-9-10.4c-1.3-3.3-1.8-6.9-1.3-10.6c0.4-2.7,1.2-5.1,2.4-7.6
	c-2.9,1.7-5.5,4.3-7.2,7.2c-1.3,2.2-2.2,4.6-2.4,7.2c-0.4,3.3,0,6.7,1.2,9.7c2.2,5.5,6.6,9.6,12.2,11.3c2.3,0.6,4.6,1,7.1,1
	c8.4,0,16.2-3.9,21.3-10.4c-1.7,1.5-3.7,2.7-5.8,3.5C43.7,54.1,39.9,54.6,36.3,54.1z"/>
</svg>
