<svg fill="#F22F46" xmlns="http://www.w3.org/2000/svg" viewBox="0 0 30 30"><path d="M14.4 11.3c0 1.7-1.4 3.1-3.1 3.1S8.2 13 8.2 11.3s1.4-3.1 3.1-3.1 3.1 1.4 3.1 3.1zm-3.1 4.3c-1.7 0-3.1 1.4-3.1 3.1s1.4 3.1 3.1 3.1 3.1-1.4 3.1-3.1-1.4-3.1-3.1-3.1zM30 15c0 8.3-6.7 15-15 15S0 23.3 0 15 6.7 0 15 0s15 6.7 15 15zm-4 0c0-6.1-4.9-11-11-11S4 8.9 4 15s4.9 11 11 11 11-4.9 11-11zm-7.3.6c-1.7 0-3.1 1.4-3.1 3.1s1.4 3.1 3.1 3.1 3.1-1.4 3.1-3.1-1.4-3.1-3.1-3.1zm0-7.4c-1.7 0-3.1 1.4-3.1 3.1s1.4 3.1 3.1 3.1 3.1-1.4 3.1-3.1-1.4-3.1-3.1-3.1zm51.6-2.3c.1"/></svg>
