<svg viewBox="20 20 1500 1000" xmlns="http://www.w3.org/2000/svg" >
<path d="M11.322 1017.71h1520.904V6.29H11.322v1011.42zM1536 1021.484v-3.774 3.774zM5.032 1024V0h1533.484v1024H5.032z" fill="#EE1C25"></path><path d="M8.806 2.516H1536v1017.71H8.806z" fill="#EE1C25"></path><path d="M264.177 118.25l32.708 99.381h104.412l-84.285 60.384 31.45 99.38-84.285-61.64-84.285 61.64 32.708-99.38-84.286-60.384h104.413z m271.725-52.835l-1.258 35.224 31.45 12.58-33.966 8.806-1.258 33.965L512 127.057l-32.708 7.547 21.386-26.417-17.612-28.934 31.45 13.838z m116.992 111.96L637.8 207.569l23.901 23.901-33.965-5.032-15.096 30.192-5.032-33.966-33.966-5.032 30.192-15.095-5.032-33.966 23.902 23.902z m-35.223 138.38l11.322 32.707h33.965l-27.675 20.128 10.063 32.707-27.675-20.127-27.676 20.127 11.322-32.707-27.676-20.128h33.966z m-81.77 105.67l-2.515 33.966 32.707 12.58-33.965 8.805-2.516 33.966L512 481.808l-33.966 8.806 22.644-26.417-18.87-28.934 32.708 12.58z" fill="#FFFF01" p-id="2009"></path></svg>