<svg xmlns="http://www.w3.org/2000/svg" viewBox="0 0 512 341.3"><path fill="#FFF" d="M0 0h512v341.3H0z"/><g fill="#D80027"><path d="M0 42.7h512v42.7H0zM0 128h512v42.7H0zM0 213.3h512V256H0zM0 298.7h512v42.7H0z"/></g><path fill="#0052B4" d="M0 0h256v170.7H0z"/><g fill="#FFDA44"><path d="M141.1 134.8c-28 0-45.9-24.8-45.9-49.5 0-24.8 17.9-49.5 45.9-49.5 8.7 0 18.1 1 25.3 4.9-11.2-11-26.6-17.8-43.6-17.8-34.4 0-62.4 27.9-62.4 62.4s27.9 62.4 62.4 62.4c17 0 32.3-6.8 43.6-17.8-7.1 3.9-16.5 4.9-25.3 4.9z"/><path d="m171 49.7 9 18.8 20.3-4.7-9.1 18.8 16.4 12.9-20.4 4.6.1 20.9-16.3-13.1-16.2 13.1v-20.9l-20.3-4.6 16.3-12.9-9.1-18.8 20.3 4.7z"/></g></svg>